# xmcd
#
# Track frame offsets: 
#        150
#        10744
#        22712
#        35694
#        49357
#        63069
#        76231
#        90157
#        102136
#        117282
#        132494
#        146831
#        163939
#        175051
#        186651
#        198050
#        213669
#        224994
#        239697
#        252820
#
# Disc length: 3557 seconds
#
# Revision: 0
# Processed by: cddbd v1.5.2PL0 Copyright (c) Steve Scherf et al.
# Submitted via: ExactAudioCopy v0.99pb5
#
DISCID=200de314
DTITLE=Otis Redding - 100 Hit Legends Disc 3
DYEAR=2010
DGENRE=Soul
TTITLE0=Hard To Handle
TTITLE1=Shake
TTITLE2=Knock On Wood
TTITLE3=Tramp
TTITLE4=Chain Gang
TTITLE5=I'm Sick Y'all
TTITLE6=It Takes Two
TTITLE7=Scratch My Back
TTITLE8=Everybody Makes A Mistake
TTITLE9=New Year's Resolution
TTITLE10=Are You Lonely For Me Baby
TTITLE11=Good To Me
TTITLE12=Sweet Lorene
TTITLE13=Ooh Carla, Ooh Otis
TTITLE14=Any Ole Way
TTITLE15=Hawg For You
TTITLE16=Love Have Mercy
TTITLE17=Tell It Like It Is
TTITLE18=Tennessee Watlz
TTITLE19=Amen
EXTD=
EXTT0=
EXTT1=
EXTT2=
EXTT3=
EXTT4=
EXTT5=
EXTT6=
EXTT7=
EXTT8=
EXTT9=
EXTT10=
EXTT11=
EXTT12=
EXTT13=
EXTT14=
EXTT15=
EXTT16=
EXTT17=
EXTT18=
EXTT19=
PLAYORDER=
